:SAMPLES-PER-SECOND 30
:FULLY-SPECIFIED
:DEGREES
233
root  53.7054 38.3696 19.0061 -5.83409 -73.4123 9.97372
RightUpLeg  -2.86149 -21.4907 0.0395274
RightLeg  24.524 -8.51328 -4.28866
RightFoot  -29.0855 0.336224 3.41776
RightToes  0.000482159 0.542163 -0.142577
Spine  26.6379 1.11192 1.00098
Spine1  2.53359 1.09529 -1.89332
HEad  -29.5134 -17.8004 9.31684
LeftShoulder1  9.86362 -14.4648 -47.9191
LeftArm  -11.7598 25.1689 -29.0494
LeftForeArm  35.6165 -11.6726 -4.1004
LeftHand  -0.25398 0.0180481 5.50724
RightShoulder  6.70287 10.8599 40.4981
RightArm  1.50344 -8.03189 38.5372
RightForeArm  10.2183 59.4674 18.5345
RightHand  -3.37271 9.15208 -26.8801
LeftUpLeg  -31.7528 4.05399 -5.10065
LeftLeg  20.116 -3.09343 -0.941994
LeftFoot  9.02031 0.954698 -5.58634
LeftToes  1.06246e-005 4.65855e-005 -8.18502e-006
234
root  53.1739 38.4138 19.2605 -7.92552 -75.3165 12.0244
RightUpLeg  -1.04859 -20.0766 -1.08302
RightLeg  22.9359 -8.66314 -3.46958
RightFoot  -28.546 0.21526 2.70201
RightToes  0.000482159 0.542163 -0.142577
Spine  25.9641 1.13042 0.244918
Spine1  2.62011 1.10411 -2.13087
HEad  -31.4604 -17.7783 9.54333
LeftShoulder1  9.82934 -14.3929 -47.9444
LeftArm  -11.9993 26.0811 -28.846
LeftForeArm  36.7519 -9.93903 -4.06692
LeftHand  -0.25398 0.0180481 5.50724
RightShoulder  6.70084 10.795 40.6851
RightArm  2.8469 -8.38285 38.0668
RightForeArm  10.0314 59.4174 18.5144
RightHand  -3.32975 8.95037 -26.9071
LeftUpLeg  -31.3709 2.97045 -3.76283
LeftLeg  21.7595 -0.358805 0.157118
LeftFoot  4.79866 0.530193 -3.94793
LeftToes  1.06246e-005 4.65855e-005 -8.18502e-006
235
root  52.5103 38.4236 19.5019 -9.33154 -76.7282 13.7651
RightUpLeg  0.33323 -18.2489 -1.83294
RightLeg  21.5306 -9.13844 -2.68109
RightFoot  -28.0091 0.121471 2.1306
RightToes  0.000482159 0.542163 -0.142577
Spine  24.7683 1.06815 -0.396273
Spine1  2.58975 1.02512 -2.33999
HEad  -33.1386 -18.5062 10.1457
LeftShoulder1  9.75174 -14.3168 -47.7665
LeftArm  -11.8973 26.7596 -28.3396
LeftForeArm  36.8263 -9.17084 -4.02143
LeftHand  -0.25398 0.0180481 5.50724
RightShoulder  6.62909 10.6189 40.7565
RightArm  3.76595 -8.72006 37.7317
RightForeArm  10.3807 59.1149 18.2322
RightHand  -3.36993 9.16786 -26.832
LeftUpLeg  -31.0755 2.52845 -2.7807
LeftLeg  22.5421 0.199024 0.413454
LeftFoot  1.17974 0.347181 -3.26306
LeftToes  1.06246e-005 4.65855e-005 -8.18502e-006
236
root  51.7112 38.3815 19.7301 -10.593 -77.4057 15.4778
RightUpLeg  1.69597 -16.8409 -2.57931
RightLeg  20.4413 -9.35573 -2.01306
RightFoot  -27.5529 0.190777 2.65384
RightToes  0.000482159 0.542163 -0.142577
Spine  23.5283 0.911049 -1.14164
Spine1  2.26463 0.786668 -2.42032
HEad  -34.7992 -19.8079 11.156
LeftShoulder1  9.67245 -14.2591 -47.5282
LeftArm  -11.6882 27.1791 -27.3561
LeftForeArm  36.3011 -9.40452 -4.01041
LeftHand  -0.25398 0.0180481 5.50724
RightShoulder  6.54987 10.5236 40.5252
RightArm  4.07434 -9.60429 37.6589
RightForeArm  10.3702 59.002 18.1428
RightHand  -3.42205 9.44528 -26.7446
LeftUpLeg  -30.8949 2.84044 -2.61395
LeftLeg  23.5089 -0.334186 0.165636
LeftFoot  -0.703648 0.334115 -3.54226
LeftToes  1.06246e-005 4.65855e-005 -8.18502e-006
237
root  50.7754 38.3019 19.9325 -12.9238 -77.3059 18.0797
RightUpLeg  3.66839 -15.9757 -3.67653
RightLeg  19.2813 -10.4607 -1.63326
RightFoot  -27.1391 0.212745 2.85839
RightToes  0.000482159 0.542163 -0.142577
Spine  22.6085 0.779512 -2.52051
Spine1  1.72064 0.429058 -2.22393
HEad  -35.8283 -21.0682 11.9603
LeftShoulder1  9.54907 -14.1902 -47.0961
LeftArm  -11.4464 27.32 -26.1301
LeftForeArm  35.8087 -10.5482 -3.97766
LeftHand  -0.25398 0.0180481 5.50724
RightShoulder  6.48944 10.5361 40.0789
RightArm  4.1575 -11.0473 37.627
RightForeArm  9.62519 59.1485 18.3364
RightHand  -3.34478 9.20921 -26.5699
LeftUpLeg  -30.4957 3.55674 -3.4144
LeftLeg  25.1555 -0.816405 -0.0891792
LeftFoot  -1.49061 0.287455 -3.22333
LeftToes  1.06246e-005 4.65855e-005 -8.18502e-006
238
root  49.7431 38.2046 20.1219 -16.6207 -76.9467 21.9942
RightUpLeg  5.67637 -15.8467 -5.06398
RightLeg  18.5612 -11.3003 -1.65963
RightFoot  -26.9843 0.1505 2.42204
RightToes  0.000482159 0.542163 -0.142577
Spine  21.9298 0.849053 -4.4605
Spine1  1.02627 0.229889 -2.01422
HEad  -35.8518 -22.3702 12.4993
LeftShoulder1  9.35694 -14.0604 -46.4747
LeftArm  -11.1255 26.9462 -24.8214
LeftForeArm  35.2847 -12.2755 -3.86573
LeftHand  -0.25398 0.0180481 5.50724
RightShoulder  6.43315 10.5187 39.7526
RightArm  4.32838 -12.7127 37.2095
RightForeArm  9.00896 59.4804 18.6711
RightHand  -3.17706 8.60813 -26.3281
LeftUpLeg  -29.8373 4.17785 -4.59884
LeftLeg  27.1115 -0.986519 -0.214653
LeftFoot  -2.87314 0.188181 -2.29968
LeftToes  1.06246e-005 4.65855e-005 -8.18502e-006
239
root  48.7294 38.1018 20.3337 -21.0979 -77.0862 26.6647
RightUpLeg  6.52851 -16.915 -6.50671
RightLeg  19.8935 -8.94824 -2.37524
RightFoot  -26.8856 0.379249 4.10426
RightToes  0.000482159 0.542163 -0.142577
Spine  21.7669 1.15119 -6.18255
Spine1  0.0149105 0.410538 -2.36009
HEad  -35.2922 -23.5361 12.7903
LeftShoulder1  9.19473 -13.8798 -46.1343
LeftArm  -10.9205 25.6811 -23.2529
LeftForeArm  34.092 -14.2857 -3.65323
LeftHand  -0.25398 0.0180481 5.50724
RightShoulder  6.39649 10.4419 39.7429
RightArm  4.487 -14.1053 36.3118
RightForeArm  9.31783 59.7715 18.882
RightHand  -3.10594 8.37591 -26.1783
LeftUpLeg  -29.073 4.36159 -5.40936
LeftLeg  29.0251 -0.692881 -0.0742374
LeftFoot  -5.33227 0.142676 -2.15362
LeftToes  1.06246e-005 4.65855e-005 -8.18502e-006
240
root  47.7531 38.0058 20.573 -25.7884 -77.333 31.201
RightUpLeg  5.56398 -16.7458 -7.68434
RightLeg  25.148 -7.14326 -4.0637
RightFoot  -25.2772 0.865902 8.6211
RightToes  0.000482159 0.542163 -0.142577
Spine  22.0786 1.38022 -7.67793
Spine1  -0.697452 0.503172 -2.80629
HEad  -35.3737 -24.2335 13.0428
LeftShoulder1  9.15296 -13.7363 -46.3116
LeftArm  -11.4606 23.7199 -21.5605
LeftForeArm  32.2386 -16.8395 -3.32494
LeftHand  -0.25398 0.0180481 5.50724
RightShoulder  6.41532 10.4324 39.9006
RightArm  4.52575 -14.6592 35.3671
RightForeArm  9.97687 59.5351 18.6184
RightHand  -3.1654 8.67368 -26.1213
LeftUpLeg  -27.9148 3.45862 -5.85602
LeftLeg  30.776 0.48248 0.660731
LeftFoot  -7.84893 0.131922 -2.77277
LeftToes  1.06246e-005 4.65855e-005 -8.18502e-006
241
root  46.8508 37.9581 20.8272 -30.4938 -78.2479 35.2702
RightUpLeg  1.90462 -14.0973 -8.11096
RightLeg  35.4428 -9.01898 -7.15228
RightFoot  -19.7169 0.710911 11.2335
RightToes  0.000482159 0.542163 -0.142577
Spine  23.2626 1.5225 -8.62745
Spine1  -1.41934 0.493827 -3.25113
HEad  -36.0391 -23.9396 13.2138
LeftShoulder1  9.17622 -13.719 -46.4805
LeftArm  -13.5526 21.9454 -20.4359
LeftForeArm  31.4219 -20.5225 -3.12897
LeftHand  -0.25398 0.0180481 5.50724
RightShoulder  6.47128 10.5319 39.9695
RightArm  4.58347 -14.1027 34.7876
RightForeArm  9.96153 58.5709 17.848
RightHand  -3.15737 8.74157 -25.9384
LeftUpLeg  -26.1783 2.53611 -5.91714
LeftLeg  32.2277 2.43029 2.0029
LeftFoot  -9.71168 0.0994473 -2.80287
LeftToes  1.06246e-005 4.65855e-005 -8.18502e-006
242
root  46.0073 37.9431 21.0681 -35.8383 -79.7041 39.7936
RightUpLeg  -4.14506 -13.3806 -8.32303
RightLeg  48.1431 -8.78627 -10.6059
RightFoot  -10.5467 -0.101815 8.52883
RightToes  0.000482159 0.542163 -0.142577
Spine  24.8575 1.60912 -9.38063
Spine1  -2.14767 0.338664 -3.36364
HEad  -37.042 -22.9125 13.1003
LeftShoulder1  9.19299 -13.8541 -46.1956
LeftArm  -17.0201 20.7467 -20.1439
LeftForeArm  33.3584 -25.1775 -3.6024
LeftHand  -0.25398 0.0180481 5.50724
RightShoulder  6.49565 10.608 39.8971
RightArm  4.5727 -12.8541 34.5428
RightForeArm  9.46522 57.4809 17.0752
RightHand  -3.01486 8.25983 -25.6535
LeftUpLeg  -24.1505 2.53388 -5.77818
LeftLeg  33.3529 4.09466 3.25231
LeftFoot  -11.4395 0.0666892 -2.23522
LeftToes  1.06246e-005 4.65855e-005 -8.18502e-006
243
root  45.2108 37.8873 21.2603 -42.4469 -80.9113 45.8071
RightUpLeg  -11.1292 -13.826 -8.49226
RightLeg  58.717 -5.96049 -10.8574
RightFoot  -3.35074 -0.369396 4.65296
RightToes  0.000482159 0.542163 -0.142577
Spine  26.2277 1.69357 -10.6602
Spine1  -2.63902 -0.0620734 -2.8691
HEad  -38.2374 -21.819 12.864
LeftShoulder1  9.26733 -14.1154 -45.8681
LeftArm  -19.6346 19.3732 -19.9217
LeftForeArm  36.5952 -29.871 -4.4874
LeftHand  -0.25398 0.0180481 5.50724
RightShoulder  6.46651 10.5712 39.8149
RightArm  4.00233 -11.7501 34.4716
RightForeArm  9.26576 57.1266 16.8418
RightHand  -2.99383 8.0706 -25.8177
LeftUpLeg  -22.4682 3.58456 -5.77558
LeftLeg  34.4454 4.58664 3.73548
LeftFoot  -13.5558 0.0343416 -2.33958
LeftToes  1.06246e-005 4.65855e-005 -8.18502e-006
244
root  44.3973 37.8361 21.4237 -48.7005 -81.7886 51.6774
RightUpLeg  -17.5519 -15.0517 -8.23175
RightLeg  64.9904 -3.50955 -8.86952
RightFoot  -2.13231 -0.356512 4.26481
RightToes  0.000482159 0.542163 -0.142577
Spine  27.4326 1.62822 -11.8104
Spine1  -3.01206 -0.688836 -1.9865
HEad  -39.754 -21.0426 13.0088
LeftShoulder1  9.45348 -14.4416 -45.9409
LeftArm  -20.5926 17.2069 -19.1334
LeftForeArm  39.7571 -34.2168 -5.34354
LeftHand  -0.25398 0.0180481 5.50724
RightShoulder  6.44477 10.5209 39.8242
RightArm  2.80659 -11.327 34.5378
RightForeArm  9.09402 57.712 17.2838
RightHand  -3.269 8.77859 -26.7365
LeftUpLeg  -20.8875 5.38252 -5.66483
LeftLeg  35.2722 4.17415 3.53347
LeftFoot  -15.632 -0.0189846 -3.01965
LeftToes  1.06246e-005 4.65855e-005 -8.18502e-006
245
root  43.5268 37.8277 21.6018 -55.4492 -82.8383 58.1539
RightUpLeg  -23.1487 -16.7553 -7.17337
RightLeg  66.9396 -3.18184 -8.88341
RightFoot  -4.5794 -0.394947 6.18984
RightToes  0.000482159 0.542163 -0.142577
Spine  28.6915 1.3287 -12.1351
Spine1  -3.49263 -1.37093 -1.27141
HEad  -41.5083 -20.2635 13.2717
LeftShoulder1  9.68023 -14.7916 -46.15
LeftArm  -20.6928 14.7928 -18.6321
LeftForeArm  43.5186 -38.789 -6.32745
LeftHand  -0.25398 0.0180481 5.50724
RightShoulder  6.48793 10.5896 39.9023
RightArm  1.7421 -11.6676 34.5237
RightForeArm  8.21567 58.753 18.1628
RightHand  -3.60271 9.65273 -27.7197
LeftUpLeg  -18.979 7.45048 -5.2419
LeftLeg  35.5053 3.83506 3.30277
LeftFoot  -17.4396 -0.061944 -3.14824
LeftToes  1.06246e-005 4.65855e-005 -8.18502e-006
246
root  42.5868 37.8066 21.8131 -67.1629 -83.9644 69.7814
RightUpLeg  -28.3727 -18.8129 -5.48473
RightLeg  65.9405 -4.59763 -11.774
RightFoot  -7.15184 -0.305221 6.87975
RightToes  0.000482159 0.542163 -0.142577
Spine  29.7318 0.978199 -12.1408
Spine1  -4.22191 -2.00254 -0.59022
HEad  -43.0715 -18.9585 12.4957
LeftShoulder1  9.90667 -15.1722 -46.2694
LeftArm  -19.6036 12.6348 -19.7674
LeftForeArm  48.1356 -43.6607 -7.48709
LeftHand  -0.25398 0.0180481 5.50724
RightShoulder  6.57403 10.7581 39.9588
RightArm  1.43399 -12.8335 34.0002
RightForeArm  6.98604 59.6288 18.9995
RightHand  -3.70212 9.90606 -27.9958
LeftUpLeg  -16.9086 9.36887 -4.81793
LeftLeg  35.3693 3.98663 3.40289
LeftFoot  -19.5681 -0.103832 -3.05897
LeftToes  1.06246e-005 4.65855e-005 -8.18502e-006
247
root  41.5362 37.7194 22.0501 -84.7918 -84.4349 87.3582
RightUpLeg  -33.0414 -20.9941 -3.82165
RightLeg  63.7173 -6.46406 -14.557
RightFoot  -8.98769 -0.173668 5.45141
RightToes  0.000482159 0.542163 -0.142577
Spine  30.3941 0.711807 -12.5774
Spine1  -5.38554 -2.7184 0.884927
HEad  -43.8981 -17.1827 10.6758
LeftShoulder1  10.1351 -15.5135 -46.4931
LeftArm  -16.3842 10.2257 -22.8065
LeftForeArm  52.1587 -47.9118 -8.66977
LeftHand  -0.25398 0.0180481 5.50724
RightShoulder  6.63551 10.8902 39.9623
RightArm  1.66447 -14.8997 32.9773
RightForeArm  6.21457 59.8116 19.2352
RightHand  -3.73602 10.0207 -28.0388
LeftUpLeg  -14.7452 11.0032 -4.75396
LeftLeg  35.3743 4.37265 3.69782
LeftFoot  -22.1344 -0.220271 -3.72175
LeftToes  1.06246e-005 4.65855e-005 -8.18502e-006
